<svg width="757" height="1078" xmlns="http://www.w3.org/2000/svg" xmlns:xlink="http://www.w3.org/1999/xlink" overflow="hidden"><defs><clipPath id="clip0"><rect x="1549" y="638" width="757" height="1078"/></clipPath></defs><g clip-path="url(#clip0)" transform="translate(-1549 -638)"><path d="M1689.57 1694.7C1687.29 1670.55 1743.05 1603.5 1809.03 1603.5 1875.01 1603.5 1928.5 1644.33 1928.5 1694.7 1928.5 1710.97 1875.01 1704.06 1812.45 1707.47 1749.88 1710.88 1691.84 1718.85 1689.57 1694.7Z" stroke="#FFFFFF" stroke-width="9.16667" stroke-miterlimit="8" fill="#4472C4" fill-rule="evenodd"/><path d="M0.0671392 91.1996C-2.20838 67.0517 53.5541 0 119.534 0 185.513 0 239 40.8314 239 91.1996 239 107.467 185.513 100.559 122.947 103.969 60.3808 107.379 2.34266 115.348 0.0671392 91.1996Z" stroke="#FFFFFF" stroke-width="9.16667" stroke-miterlimit="8" fill="#4472C4" fill-rule="evenodd" transform="matrix(-1 0 0 1 2168.5 1603.5)"/><path d="M1561.57 1177.86C1567.12 935.124 1680.85 807.852 1726.04 724.079 1778.44 620.671 1749.36 632.222 1836 710.746 1889.32 713.254 1909.33 713.802 1943.64 712.852 1977.94 711.901 2003.36 710.277 2041.83 705.043 2120.28 612.726 2106.74 629.394 2149.21 710.745 2201.06 831.185 2294.49 1016.72 2294.5 1177.23 2209.1 1531.99 1994.95 1680.4 1932.68 1680.5 1870.4 1680.6 1556.03 1420.6 1561.57 1177.86Z" stroke="#FFFFFF" stroke-width="9.16667" stroke-miterlimit="8" fill="#4472C4" fill-rule="evenodd"/><path d="M1977 1017.05 1929.5 1099 1882 1017.05 1930.93 914 1977 1017.05Z" fill="#FFFFFF" fill-rule="evenodd"/><path d="M2166.83 791.5 2192.63 823.215C2259.9 914.202 2301.5 1039.9 2301.5 1178.74 2301.5 1369.65 2222.84 1535.7 2106.97 1620.85L2105.97 1621.5 2086.55 1593.87C2028.44 1502.88 1992.5 1377.18 1992.5 1238.34 1992.5 1047.44 2060.45 881.379 2160.55 796.237Z" stroke="#FFFFFF" stroke-width="9.16667" stroke-miterlimit="8" fill="#4472C4" fill-rule="evenodd"/><path d="M1693.65 785.5 1707.37 795.84C1807.51 880.952 1875.5 1046.95 1875.5 1237.79 1875.5 1393.94 1829.99 1533.45 1758.59 1625.64L1757.85 1626.5 1748.12 1620.16C1632.19 1535.05 1553.5 1369.05 1553.5 1178.21 1553.5 1022.07 1606.18 882.556 1688.83 790.369Z" stroke="#FFFFFF" stroke-width="9.16667" stroke-miterlimit="8" fill="#4472C4" fill-rule="evenodd"/><path d="M1626 911C1626 825.948 1695.17 757 1780.5 757 1865.83 757 1935 825.948 1935 911 1935 996.052 1865.83 1065 1780.5 1065 1695.17 1065 1626 996.052 1626 911Z" fill="#FFFFFF" fill-rule="evenodd"/><path d="M1787.5 937.5C1787.5 909.886 1809.89 887.5 1837.5 887.5 1865.11 887.5 1887.5 909.886 1887.5 937.5 1887.5 965.114 1865.11 987.5 1837.5 987.5 1809.89 987.5 1787.5 965.114 1787.5 937.5Z" stroke="#4472C4" stroke-width="11.4583" stroke-miterlimit="8" fill="#4472C4" fill-rule="evenodd"/><path d="M1928 911C1928 825.948 1996.95 757 2082 757 2167.05 757 2236 825.948 2236 911 2236 996.052 2167.05 1065 2082 1065 1996.95 1065 1928 996.052 1928 911Z" fill="#FFFFFF" fill-rule="evenodd"/><path d="M1967.5 934.5C1967.5 906.886 1989.89 884.5 2017.5 884.5 2045.11 884.5 2067.5 906.886 2067.5 934.5 2067.5 962.114 2045.11 984.5 2017.5 984.5 1989.89 984.5 1967.5 962.114 1967.5 934.5Z" stroke="#4472C4" stroke-width="11.4583" stroke-miterlimit="8" fill="#4472C4" fill-rule="evenodd"/><path d="M1976 915C1976 904.507 1984.51 896 1995 896 2005.49 896 2014 904.507 2014 915 2014 925.493 2005.49 934 1995 934 1984.51 934 1976 925.493 1976 915Z" fill="#FFFFFF" fill-rule="evenodd"/><path d="M1839 915C1839 904.507 1847.73 896 1858.5 896 1869.27 896 1878 904.507 1878 915 1878 925.493 1869.27 934 1858.5 934 1847.73 934 1839 925.493 1839 915Z" fill="#FFFFFF" fill-rule="evenodd"/><path d="M2038 957C2038 950.925 2043.15 946 2049.5 946 2055.85 946 2061 950.925 2061 957 2061 963.075 2055.85 968 2049.5 968 2043.15 968 2038 963.075 2038 957Z" fill="#FFFFFF" fill-rule="evenodd"/><path d="M1795 958C1795 951.925 1799.93 947 1806 947 1812.08 947 1817 951.925 1817 958 1817 964.075 1812.08 969 1806 969 1799.93 969 1795 964.075 1795 958Z" fill="#FFFFFF" fill-rule="evenodd"/></g></svg>